<?xml version="1.0" encoding="utf-8" standalone="no"?>
<!DOCTYPE svg PUBLIC "-//W3C//DTD SVG 1.1//EN"
  "http://www.w3.org/Graphics/SVG/1.1/DTD/svg11.dtd">
<!-- Created with matplotlib (http://matplotlib.sourceforge.net/) -->
<svg height="432pt" version="1.1" viewBox="0 0 576 432" width="576pt" xmlns="http://www.w3.org/2000/svg" xmlns:xlink="http://www.w3.org/1999/xlink">
 <defs>
  <style type="text/css">
*{stroke-linecap:square;stroke-linejoin:round;}
  </style>
 </defs>
 <g id="figure_1">
  <g id="patch_1">
   <path d="
M0 432
L576 432
L576 0
L0 0
z
" style="fill:#ffffff;"/>
  </g>
  <g id="patch_2">
   <path d="
M72 388.8
L518.4 388.8
L518.4 43.2
L72 43.2
z
" style="fill:#ffffff;"/>
  </g>
  <g id="pane3d_1">
   <g id="patch_3">
    <path d="
M131.177 312.435
L258.939 227.701
L256.812 65.7899
L121.927 141.921" style="fill:#f2f2f2;opacity:0.5;stroke:#f2f2f2;"/>
   </g>
  </g>
  <g id="pane3d_2">
   <g id="patch_4">
    <path d="
M258.939 227.701
L465.902 275.073
L474.561 108.279
L256.812 65.7899" style="fill:#e6e6e6;opacity:0.5;stroke:#e6e6e6;"/>
   </g>
  </g>
  <g id="pane3d_3">
   <g id="patch_5">
    <path d="
M131.177 312.435
L348.93 367.606
L465.902 275.073
L258.939 227.701" style="fill:#ececec;opacity:0.5;stroke:#ececec;"/>
   </g>
  </g>
  <g id="axis3d_1">
   <g id="line2d_1">
    <path d="
M131.177 312.435
L348.93 367.606" style="fill:none;stroke:#000000;stroke-width:0.75;"/>
   </g>
   <g id="Line3DCollection_1">
    <defs>
     <path d="
M135.341 -118.51
L262.91 -203.39
L260.981 -365.397" id="C0_0_07aeb28047"/>
     <path d="
M161.132 -111.976
L287.492 -197.763
L286.797 -360.359" id="C0_1_c796ef5ef4"/>
     <path d="
M187.21 -105.369
L312.328 -192.079
L312.893 -355.267" id="C0_2_55ca147b66"/>
     <path d="
M213.579 -98.6873
L337.422 -186.335
L339.273 -350.12" id="C0_3_f355527d5a"/>
     <path d="
M240.246 -91.9309
L362.777 -180.531
L365.943 -344.916" id="C0_4_6c72a4219e"/>
     <path d="
M267.214 -85.0979
L388.398 -174.667
L392.906 -339.654" id="C0_5_b30697f5fe"/>
     <path d="
M294.489 -78.1872
L414.289 -168.741
L420.169 -334.334" id="C0_6_112e657474"/>
     <path d="
M322.077 -71.1974
L440.454 -162.752
L447.736 -328.955" id="C0_7_fcd486eb30"/>
    </defs>
    <use style="fill:none;stroke:#e6e6e6;stroke-linecap:butt;" x="0" xlink:href="#C0_0_07aeb28047" y="432.0"/>
    <use style="fill:none;stroke:#e6e6e6;stroke-linecap:butt;" x="0" xlink:href="#C0_1_c796ef5ef4" y="432.0"/>
    <use style="fill:none;stroke:#e6e6e6;stroke-linecap:butt;" x="0" xlink:href="#C0_2_55ca147b66" y="432.0"/>
    <use style="fill:none;stroke:#e6e6e6;stroke-linecap:butt;" x="0" xlink:href="#C0_3_f355527d5a" y="432.0"/>
    <use style="fill:none;stroke:#e6e6e6;stroke-linecap:butt;" x="0" xlink:href="#C0_4_6c72a4219e" y="432.0"/>
    <use style="fill:none;stroke:#e6e6e6;stroke-linecap:butt;" x="0" xlink:href="#C0_5_b30697f5fe" y="432.0"/>
    <use style="fill:none;stroke:#e6e6e6;stroke-linecap:butt;" x="0" xlink:href="#C0_6_112e657474" y="432.0"/>
    <use style="fill:none;stroke:#e6e6e6;stroke-linecap:butt;" x="0" xlink:href="#C0_7_fcd486eb30" y="432.0"/>
   </g>
   <g id="xtick_1">
    <g id="line2d_2">
     <path d="
M136.44 312.758
L133.139 314.955" style="fill:none;stroke:#000000;"/>
    </g>
    <g id="text_1">
     <!-- −2.0 -->
     <defs>
      <path d="
M10.5938 35.5
L73.1875 35.5
L73.1875 27.2031
L10.5938 27.2031
z
" id="BitstreamVeraSans-Roman-2212"/>
      <path d="
M19.1875 8.29688
L53.6094 8.29688
L53.6094 0
L7.32812 0
L7.32812 8.29688
Q12.9375 14.1094 22.625 23.8906
Q32.3281 33.6875 34.8125 36.5312
Q39.5469 41.8438 41.4219 45.5312
Q43.3125 49.2188 43.3125 52.7812
Q43.3125 58.5938 39.2344 62.25
Q35.1562 65.9219 28.6094 65.9219
Q23.9688 65.9219 18.8125 64.3125
Q13.6719 62.7031 7.8125 59.4219
L7.8125 69.3906
Q13.7656 71.7812 18.9375 73
Q24.125 74.2188 28.4219 74.2188
Q39.75 74.2188 46.4844 68.5469
Q53.2188 62.8906 53.2188 53.4219
Q53.2188 48.9219 51.5312 44.8906
Q49.8594 40.875 45.4062 35.4062
Q44.1875 33.9844 37.6406 27.2188
Q31.1094 20.4531 19.1875 8.29688" id="BitstreamVeraSans-Roman-32"/>
      <path d="
M31.7812 66.4062
Q24.1719 66.4062 20.3281 58.9062
Q16.5 51.4219 16.5 36.375
Q16.5 21.3906 20.3281 13.8906
Q24.1719 6.39062 31.7812 6.39062
Q39.4531 6.39062 43.2812 13.8906
Q47.125 21.3906 47.125 36.375
Q47.125 51.4219 43.2812 58.9062
Q39.4531 66.4062 31.7812 66.4062
M31.7812 74.2188
Q44.0469 74.2188 50.5156 64.5156
Q56.9844 54.8281 56.9844 36.375
Q56.9844 17.9688 50.5156 8.26562
Q44.0469 -1.42188 31.7812 -1.42188
Q19.5312 -1.42188 13.0625 8.26562
Q6.59375 17.9688 6.59375 36.375
Q6.59375 54.8281 13.0625 64.5156
Q19.5312 74.2188 31.7812 74.2188" id="BitstreamVeraSans-Roman-30"/>
      <path d="
M10.6875 12.4062
L21 12.4062
L21 0
L10.6875 0
z
" id="BitstreamVeraSans-Roman-2e"/>
     </defs>
     <g transform="translate(114.577854202 336.599035604)scale(0.12 -0.12)">
      <use xlink:href="#BitstreamVeraSans-Roman-2212"/>
      <use x="83.7890625" xlink:href="#BitstreamVeraSans-Roman-32"/>
      <use x="147.412109375" xlink:href="#BitstreamVeraSans-Roman-2e"/>
      <use x="179.19921875" xlink:href="#BitstreamVeraSans-Roman-30"/>
     </g>
    </g>
   </g>
   <g id="xtick_2">
    <g id="line2d_3">
     <path d="
M162.221 319.285
L158.95 321.506" style="fill:none;stroke:#000000;"/>
    </g>
    <g id="text_2">
     <!-- −1.5 -->
     <defs>
      <path d="
M12.4062 8.29688
L28.5156 8.29688
L28.5156 63.9219
L10.9844 60.4062
L10.9844 69.3906
L28.4219 72.9062
L38.2812 72.9062
L38.2812 8.29688
L54.3906 8.29688
L54.3906 0
L12.4062 0
z
" id="BitstreamVeraSans-Roman-31"/>
      <path d="
M10.7969 72.9062
L49.5156 72.9062
L49.5156 64.5938
L19.8281 64.5938
L19.8281 46.7344
Q21.9688 47.4688 24.1094 47.8281
Q26.2656 48.1875 28.4219 48.1875
Q40.625 48.1875 47.75 41.5
Q54.8906 34.8125 54.8906 23.3906
Q54.8906 11.625 47.5625 5.09375
Q40.2344 -1.42188 26.9062 -1.42188
Q22.3125 -1.42188 17.5469 -0.640625
Q12.7969 0.140625 7.71875 1.70312
L7.71875 11.625
Q12.1094 9.23438 16.7969 8.0625
Q21.4844 6.89062 26.7031 6.89062
Q35.1562 6.89062 40.0781 11.3281
Q45.0156 15.7656 45.0156 23.3906
Q45.0156 31 40.0781 35.4375
Q35.1562 39.8906 26.7031 39.8906
Q22.75 39.8906 18.8125 39.0156
Q14.8906 38.1406 10.7969 36.2812
z
" id="BitstreamVeraSans-Roman-35"/>
     </defs>
     <g transform="translate(140.491614477 343.064315624)scale(0.12 -0.12)">
      <use xlink:href="#BitstreamVeraSans-Roman-2212"/>
      <use x="83.7890625" xlink:href="#BitstreamVeraSans-Roman-31"/>
      <use x="147.412109375" xlink:href="#BitstreamVeraSans-Roman-2e"/>
      <use x="179.19921875" xlink:href="#BitstreamVeraSans-Roman-35"/>
     </g>
    </g>
   </g>
   <g id="xtick_3">
    <g id="line2d_4">
     <path d="
M188.288 325.884
L185.048 328.129" style="fill:none;stroke:#000000;"/>
    </g>
    <g id="text_3">
     <!-- −1.0 -->
     <g transform="translate(166.441577674 349.918417868)scale(0.12 -0.12)">
      <use xlink:href="#BitstreamVeraSans-Roman-2212"/>
      <use x="83.7890625" xlink:href="#BitstreamVeraSans-Roman-31"/>
      <use x="147.412109375" xlink:href="#BitstreamVeraSans-Roman-2e"/>
      <use x="179.19921875" xlink:href="#BitstreamVeraSans-Roman-30"/>
     </g>
    </g>
   </g>
   <g id="xtick_4">
    <g id="line2d_5">
     <path d="
M214.647 332.557
L211.439 334.827" style="fill:none;stroke:#000000;"/>
    </g>
    <g id="text_4">
     <!-- −0.5 -->
     <g transform="translate(192.935076964 356.690083565)scale(0.12 -0.12)">
      <use xlink:href="#BitstreamVeraSans-Roman-2212"/>
      <use x="83.7890625" xlink:href="#BitstreamVeraSans-Roman-30"/>
      <use x="147.412109375" xlink:href="#BitstreamVeraSans-Roman-2e"/>
      <use x="179.19921875" xlink:href="#BitstreamVeraSans-Roman-35"/>
     </g>
    </g>
   </g>
   <g id="xtick_5">
    <g id="line2d_6">
     <path d="
M241.303 339.305
L238.127 341.601" style="fill:none;stroke:#000000;"/>
    </g>
    <g id="text_5">
     <!-- 0.0 -->
     <g transform="translate(224.262366977 363.538081929)scale(0.12 -0.12)">
      <use xlink:href="#BitstreamVeraSans-Roman-30"/>
      <use x="63.623046875" xlink:href="#BitstreamVeraSans-Roman-2e"/>
      <use x="95.41015625" xlink:href="#BitstreamVeraSans-Roman-30"/>
     </g>
    </g>
   </g>
   <g id="xtick_6">
    <g id="line2d_7">
     <path d="
M268.26 346.129
L265.118 348.451" style="fill:none;stroke:#000000;"/>
    </g>
    <g id="text_6">
     <!-- 0.5 -->
     <g transform="translate(251.355376897 370.46371095)scale(0.12 -0.12)">
      <use xlink:href="#BitstreamVeraSans-Roman-30"/>
      <use x="63.623046875" xlink:href="#BitstreamVeraSans-Roman-2e"/>
      <use x="95.41015625" xlink:href="#BitstreamVeraSans-Roman-35"/>
     </g>
    </g>
   </g>
   <g id="xtick_7">
    <g id="line2d_8">
     <path d="
M295.524 353.031
L292.416 355.38" style="fill:none;stroke:#000000;"/>
    </g>
    <g id="text_7">
     <!-- 1.0 -->
     <g transform="translate(278.768026149 377.468298214)scale(0.12 -0.12)">
      <use xlink:href="#BitstreamVeraSans-Roman-31"/>
      <use x="63.623046875" xlink:href="#BitstreamVeraSans-Roman-2e"/>
      <use x="95.41015625" xlink:href="#BitstreamVeraSans-Roman-30"/>
     </g>
    </g>
   </g>
   <g id="xtick_8">
    <g id="line2d_9">
     <path d="
M323.099 360.012
L320.027 362.387" style="fill:none;stroke:#000000;"/>
    </g>
    <g id="text_8">
     <!-- 1.5 -->
     <g transform="translate(306.48122771 384.395701752)scale(0.12 -0.12)">
      <use xlink:href="#BitstreamVeraSans-Roman-31"/>
      <use x="63.623046875" xlink:href="#BitstreamVeraSans-Roman-2e"/>
      <use x="95.41015625" xlink:href="#BitstreamVeraSans-Roman-35"/>
     </g>
    </g>
   </g>
  </g>
  <g id="axis3d_2">
   <g id="line2d_10">
    <path d="
M465.902 275.073
L348.93 367.606" style="fill:none;stroke:#000000;stroke-width:0.75;"/>
   </g>
   <g id="Line3DCollection_2">
    <defs>
     <path d="
M142.121 -301.477
L150.242 -132.209
L366.434 -78.2408" id="C1_0_d23144e1ce"/>
     <path d="
M159.07 -311.043
L166.26 -142.833
L381.128 -89.8649" id="C1_1_b5f8fea556"/>
     <path d="
M175.698 -320.428
L181.99 -153.265
L395.545 -101.27" id="C1_2_ad56da6b66"/>
     <path d="
M192.013 -329.637
L197.438 -163.51
L409.692 -112.462" id="C1_3_6df352dd30"/>
     <path d="
M208.024 -338.673
L212.612 -173.574
L423.578 -123.446" id="C1_4_304aa54d59"/>
     <path d="
M223.739 -347.543
L227.52 -183.461
L437.209 -134.229" id="C1_5_278e57d441"/>
     <path d="
M239.166 -356.251
L242.169 -193.176
L450.592 -144.816" id="C1_6_3b5ce08770"/>
     <path d="
M254.314 -364.8
L256.564 -202.724
L463.734 -155.213" id="C1_7_4fc8a8dc00"/>
    </defs>
    <use style="fill:none;stroke:#e6e6e6;stroke-linecap:butt;" x="0" xlink:href="#C1_0_d23144e1ce" y="432.0"/>
    <use style="fill:none;stroke:#e6e6e6;stroke-linecap:butt;" x="0" xlink:href="#C1_1_b5f8fea556" y="432.0"/>
    <use style="fill:none;stroke:#e6e6e6;stroke-linecap:butt;" x="0" xlink:href="#C1_2_ad56da6b66" y="432.0"/>
    <use style="fill:none;stroke:#e6e6e6;stroke-linecap:butt;" x="0" xlink:href="#C1_3_6df352dd30" y="432.0"/>
    <use style="fill:none;stroke:#e6e6e6;stroke-linecap:butt;" x="0" xlink:href="#C1_4_304aa54d59" y="432.0"/>
    <use style="fill:none;stroke:#e6e6e6;stroke-linecap:butt;" x="0" xlink:href="#C1_5_278e57d441" y="432.0"/>
    <use style="fill:none;stroke:#e6e6e6;stroke-linecap:butt;" x="0" xlink:href="#C1_6_3b5ce08770" y="432.0"/>
    <use style="fill:none;stroke:#e6e6e6;stroke-linecap:butt;" x="0" xlink:href="#C1_7_4fc8a8dc00" y="432.0"/>
   </g>
   <g id="xtick_9">
    <g id="line2d_11">
     <path d="
M364.625 353.308
L370.056 354.663" style="fill:none;stroke:#000000;"/>
    </g>
    <g id="text_9">
     <!-- −1.5 -->
     <g transform="translate(365.490465296 374.914771005)scale(0.12 -0.12)">
      <use xlink:href="#BitstreamVeraSans-Roman-2212"/>
      <use x="83.7890625" xlink:href="#BitstreamVeraSans-Roman-31"/>
      <use x="147.412109375" xlink:href="#BitstreamVeraSans-Roman-2e"/>
      <use x="179.19921875" xlink:href="#BitstreamVeraSans-Roman-35"/>
     </g>
    </g>
   </g>
   <g id="xtick_10">
    <g id="line2d_12">
     <path d="
M379.331 341.692
L384.726 343.022" style="fill:none;stroke:#000000;"/>
    </g>
    <g id="text_10">
     <!-- −1.0 -->
     <g transform="translate(379.934442828 363.334703943)scale(0.12 -0.12)">
      <use xlink:href="#BitstreamVeraSans-Roman-2212"/>
      <use x="83.7890625" xlink:href="#BitstreamVeraSans-Roman-31"/>
      <use x="147.412109375" xlink:href="#BitstreamVeraSans-Roman-2e"/>
      <use x="179.19921875" xlink:href="#BitstreamVeraSans-Roman-30"/>
     </g>
    </g>
   </g>
   <g id="xtick_11">
    <g id="line2d_13">
     <path d="
M393.759 330.296
L399.119 331.601" style="fill:none;stroke:#000000;"/>
    </g>
    <g id="text_11">
     <!-- −0.5 -->
     <g transform="translate(394.354980719 351.818432423)scale(0.12 -0.12)">
      <use xlink:href="#BitstreamVeraSans-Roman-2212"/>
      <use x="83.7890625" xlink:href="#BitstreamVeraSans-Roman-30"/>
      <use x="147.412109375" xlink:href="#BitstreamVeraSans-Roman-2e"/>
      <use x="179.19921875" xlink:href="#BitstreamVeraSans-Roman-35"/>
     </g>
    </g>
   </g>
   <g id="xtick_12">
    <g id="line2d_14">
     <path d="
M407.919 319.112
L413.244 320.393" style="fill:none;stroke:#000000;"/>
    </g>
    <g id="text_12">
     <!-- 0.0 -->
     <g transform="translate(413.045087259 340.517256559)scale(0.12 -0.12)">
      <use xlink:href="#BitstreamVeraSans-Roman-30"/>
      <use x="63.623046875" xlink:href="#BitstreamVeraSans-Roman-2e"/>
      <use x="95.41015625" xlink:href="#BitstreamVeraSans-Roman-30"/>
     </g>
    </g>
   </g>
   <g id="xtick_13">
    <g id="line2d_15">
     <path d="
M421.816 308.135
L427.106 309.392" style="fill:none;stroke:#000000;"/>
    </g>
    <g id="text_13">
     <!-- 0.5 -->
     <g transform="translate(426.939048423 329.425205921)scale(0.12 -0.12)">
      <use xlink:href="#BitstreamVeraSans-Roman-30"/>
      <use x="63.623046875" xlink:href="#BitstreamVeraSans-Roman-2e"/>
      <use x="95.41015625" xlink:href="#BitstreamVeraSans-Roman-35"/>
     </g>
    </g>
   </g>
   <g id="xtick_14">
    <g id="line2d_16">
     <path d="
M435.458 297.36
L440.714 298.594" style="fill:none;stroke:#000000;"/>
    </g>
    <g id="text_14">
     <!-- 1.0 -->
     <g transform="translate(440.592753424 318.536529015)scale(0.12 -0.12)">
      <use xlink:href="#BitstreamVeraSans-Roman-31"/>
      <use x="63.623046875" xlink:href="#BitstreamVeraSans-Roman-2e"/>
      <use x="95.41015625" xlink:href="#BitstreamVeraSans-Roman-30"/>
     </g>
    </g>
   </g>
   <g id="xtick_15">
    <g id="line2d_17">
     <path d="
M448.852 286.78
L454.075 287.992" style="fill:none;stroke:#000000;"/>
    </g>
    <g id="text_15">
     <!-- 1.5 -->
     <g transform="translate(453.988707055 307.688183338)scale(0.12 -0.12)">
      <use xlink:href="#BitstreamVeraSans-Roman-31"/>
      <use x="63.623046875" xlink:href="#BitstreamVeraSans-Roman-2e"/>
      <use x="95.41015625" xlink:href="#BitstreamVeraSans-Roman-35"/>
     </g>
    </g>
   </g>
   <g id="xtick_16">
    <g id="line2d_18">
     <path d="
M462.006 276.391
L467.195 277.581" style="fill:none;stroke:#000000;"/>
    </g>
    <g id="text_16">
     <!-- 2.0 -->
     <g transform="translate(466.675103871 297.347325973)scale(0.12 -0.12)">
      <use xlink:href="#BitstreamVeraSans-Roman-32"/>
      <use x="63.623046875" xlink:href="#BitstreamVeraSans-Roman-2e"/>
      <use x="95.41015625" xlink:href="#BitstreamVeraSans-Roman-30"/>
     </g>
    </g>
   </g>
  </g>
  <g id="axis3d_3">
   <g id="line2d_19">
    <path d="
M465.902 275.073
L474.561 108.279" style="fill:none;stroke:#000000;stroke-width:0.75;"/>
   </g>
   <g id="Line3DCollection_3">
    <defs>
     <path d="
M466.066 -160.1
L258.899 -207.385
L131.002 -122.803" id="C2_0_3f3cbe06ab"/>
     <path d="
M467.396 -185.709
L258.572 -232.288
L129.583 -148.947" id="C2_1_35f450e2bb"/>
     <path d="
M468.747 -211.735
L258.239 -257.58
L128.141 -175.531" id="C2_2_dc1a5acb64"/>
     <path d="
M470.12 -238.188
L257.902 -283.269
L126.674 -202.565" id="C2_3_56b1869acd"/>
     <path d="
M471.516 -265.078
L257.559 -309.364
L125.183 -230.061" id="C2_4_079f52ed60"/>
     <path d="
M472.936 -292.416
L257.211 -335.875
L123.665 -258.031" id="C2_5_8766ddf18d"/>
     <path d="
M474.379 -320.214
L256.857 -362.812
L122.121 -286.487" id="C2_6_4f8517cd78"/>
    </defs>
    <use style="fill:none;stroke:#e6e6e6;stroke-linecap:butt;" x="0" xlink:href="#C2_0_3f3cbe06ab" y="432.0"/>
    <use style="fill:none;stroke:#e6e6e6;stroke-linecap:butt;" x="0" xlink:href="#C2_1_35f450e2bb" y="432.0"/>
    <use style="fill:none;stroke:#e6e6e6;stroke-linecap:butt;" x="0" xlink:href="#C2_2_dc1a5acb64" y="432.0"/>
    <use style="fill:none;stroke:#e6e6e6;stroke-linecap:butt;" x="0" xlink:href="#C2_3_56b1869acd" y="432.0"/>
    <use style="fill:none;stroke:#e6e6e6;stroke-linecap:butt;" x="0" xlink:href="#C2_4_079f52ed60" y="432.0"/>
    <use style="fill:none;stroke:#e6e6e6;stroke-linecap:butt;" x="0" xlink:href="#C2_5_8766ddf18d" y="432.0"/>
    <use style="fill:none;stroke:#e6e6e6;stroke-linecap:butt;" x="0" xlink:href="#C2_6_4f8517cd78" y="432.0"/>
   </g>
   <g id="xtick_17">
    <g id="line2d_20">
     <path d="
M464.338 271.506
L469.527 272.69" style="fill:none;stroke:#000000;"/>
    </g>
    <g id="text_17">
     <!-- −3 -->
     <defs>
      <path d="
M40.5781 39.3125
Q47.6562 37.7969 51.625 33
Q55.6094 28.2188 55.6094 21.1875
Q55.6094 10.4062 48.1875 4.48438
Q40.7656 -1.42188 27.0938 -1.42188
Q22.5156 -1.42188 17.6562 -0.515625
Q12.7969 0.390625 7.625 2.20312
L7.625 11.7188
Q11.7188 9.32812 16.5938 8.10938
Q21.4844 6.89062 26.8125 6.89062
Q36.0781 6.89062 40.9375 10.5469
Q45.7969 14.2031 45.7969 21.1875
Q45.7969 27.6406 41.2812 31.2656
Q36.7656 34.9062 28.7188 34.9062
L20.2188 34.9062
L20.2188 43.0156
L29.1094 43.0156
Q36.375 43.0156 40.2344 45.9219
Q44.0938 48.8281 44.0938 54.2969
Q44.0938 59.9062 40.1094 62.9062
Q36.1406 65.9219 28.7188 65.9219
Q24.6562 65.9219 20.0156 65.0312
Q15.375 64.1562 9.8125 62.3125
L9.8125 71.0938
Q15.4375 72.6562 20.3438 73.4375
Q25.25 74.2188 29.5938 74.2188
Q40.8281 74.2188 47.3594 69.1094
Q53.9062 64.0156 53.9062 55.3281
Q53.9062 49.2656 50.4375 45.0938
Q46.9688 40.9219 40.5781 39.3125" id="BitstreamVeraSans-Roman-33"/>
     </defs>
     <g transform="translate(476.474188297 278.787712895)scale(0.12 -0.12)">
      <use xlink:href="#BitstreamVeraSans-Roman-2212"/>
      <use x="83.7890625" xlink:href="#BitstreamVeraSans-Roman-33"/>
     </g>
    </g>
   </g>
   <g id="xtick_18">
    <g id="line2d_21">
     <path d="
M465.653 245.902
L470.885 247.069" style="fill:none;stroke:#000000;"/>
    </g>
    <g id="text_18">
     <!-- −2 -->
     <g transform="translate(478.067344461 253.207776458)scale(0.12 -0.12)">
      <use xlink:href="#BitstreamVeraSans-Roman-2212"/>
      <use x="83.7890625" xlink:href="#BitstreamVeraSans-Roman-32"/>
     </g>
    </g>
   </g>
   <g id="xtick_19">
    <g id="line2d_22">
     <path d="
M466.989 219.882
L472.266 221.031" style="fill:none;stroke:#000000;"/>
    </g>
    <g id="text_19">
     <!-- −1 -->
     <g transform="translate(479.517539902 227.055091632)scale(0.12 -0.12)">
      <use xlink:href="#BitstreamVeraSans-Roman-2212"/>
      <use x="83.7890625" xlink:href="#BitstreamVeraSans-Roman-31"/>
     </g>
    </g>
   </g>
   <g id="xtick_20">
    <g id="line2d_23">
     <path d="
M468.348 193.436
L473.669 194.566" style="fill:none;stroke:#000000;"/>
    </g>
    <g id="text_20">
     <!-- 0 -->
     <g transform="translate(485.671299201 200.791964359)scale(0.12 -0.12)">
      <use xlink:href="#BitstreamVeraSans-Roman-30"/>
     </g>
    </g>
   </g>
   <g id="xtick_21">
    <g id="line2d_24">
     <path d="
M469.729 166.552
L475.095 167.663" style="fill:none;stroke:#000000;"/>
    </g>
    <g id="text_21">
     <!-- 1 -->
     <g transform="translate(487.637041312 173.777864151)scale(0.12 -0.12)">
      <use xlink:href="#BitstreamVeraSans-Roman-31"/>
     </g>
    </g>
   </g>
   <g id="xtick_22">
    <g id="line2d_25">
     <path d="
M471.133 139.221
L476.545 140.311" style="fill:none;stroke:#000000;"/>
    </g>
    <g id="text_22">
     <!-- 2 -->
     <g transform="translate(489.036955368 146.631910098)scale(0.12 -0.12)">
      <use xlink:href="#BitstreamVeraSans-Roman-32"/>
     </g>
    </g>
   </g>
   <g id="xtick_23">
    <g id="line2d_26">
     <path d="
M472.56 111.43
L478.02 112.5" style="fill:none;stroke:#000000;"/>
    </g>
    <g id="text_23">
     <!-- 3 -->
     <g transform="translate(490.533564033 118.870356165)scale(0.12 -0.12)">
      <use xlink:href="#BitstreamVeraSans-Roman-33"/>
     </g>
    </g>
   </g>
  </g>
  <g id="axes_1">
   <g id="Poly3DCollection_1">
    <defs>
     <path d="
M435.752 -162.18
L436.183 -172.363
L425.479 -164.178
L425.08 -153.948
L435.752 -162.18
z
" id="C3_0_46b08c4bf1"/>
     <path d="
M456.956 -157.32
L435.752 -162.18
L425.08 -153.948
L446.392 -149.017
L456.956 -157.32
z
" id="C3_1_e34d24ab9c"/>
     <path d="
M436.183 -172.363
L457.457 -167.53
L446.862 -159.275
L425.479 -164.178
L436.183 -172.363
z
" id="C3_2_f2f0868f05"/>
     <path d="
M457.457 -167.53
L456.956 -157.32
L446.392 -149.017
L446.862 -159.275
L457.457 -167.53
z
" id="C3_3_852443d8df"/>
    </defs>
    <g clip-path="url(#p7ff5b81e1d)">
     <use style="fill:#004000;stroke:#000000;stroke-linecap:butt;" x="0" xlink:href="#C3_0_46b08c4bf1" y="432.0"/>
    </g>
    <g clip-path="url(#p7ff5b81e1d)">
     <use style="fill:#007000;stroke:#000000;stroke-linecap:butt;" x="0" xlink:href="#C3_1_e34d24ab9c" y="432.0"/>
    </g>
    <g clip-path="url(#p7ff5b81e1d)">
     <use style="fill:#005000;stroke:#000000;stroke-linecap:butt;" x="0" xlink:href="#C3_2_f2f0868f05" y="432.0"/>
    </g>
    <g clip-path="url(#p7ff5b81e1d)">
     <use style="fill:#008000;stroke:#000000;stroke-linecap:butt;" x="0" xlink:href="#C3_3_852443d8df" y="432.0"/>
    </g>
   </g>
   <g id="Poly3DCollection_2">
    <defs>
     <path d="
M198.962 -243.527
L198.121 -270.324
L165.85 -250.927
L166.975 -223.79
L198.962 -243.527
z
" id="C4_0_bcce7c7b32"/>
     <path d="
M250.861 -231.928
L198.962 -243.527
L166.975 -223.79
L219.497 -211.751
L250.861 -231.928
z
" id="C4_1_97b2946fcb"/>
     <path d="
M198.121 -270.324
L250.442 -258.926
L218.804 -239.092
L165.85 -250.927
L198.121 -270.324
z
" id="C4_2_5ebcc17016"/>
     <path d="
M250.442 -258.926
L250.861 -231.928
L219.497 -211.751
L218.804 -239.092
L250.442 -258.926
z
" id="C4_3_d68b6ce00f"/>
    </defs>
    <g clip-path="url(#p7ff5b81e1d)">
     <use style="fill:#404040;stroke:#000000;stroke-linecap:butt;" x="0" xlink:href="#C4_0_bcce7c7b32" y="432.0"/>
    </g>
    <g clip-path="url(#p7ff5b81e1d)">
     <use style="fill:#707070;stroke:#000000;stroke-linecap:butt;" x="0" xlink:href="#C4_1_97b2946fcb" y="432.0"/>
    </g>
    <g clip-path="url(#p7ff5b81e1d)">
     <use style="fill:#505050;stroke:#000000;stroke-linecap:butt;" x="0" xlink:href="#C4_2_5ebcc17016" y="432.0"/>
    </g>
    <g clip-path="url(#p7ff5b81e1d)">
     <use style="fill:#808080;stroke:#000000;stroke-linecap:butt;" x="0" xlink:href="#C4_3_d68b6ce00f" y="432.0"/>
    </g>
   </g>
   <g id="Poly3DCollection_3">
    <defs>
     <path d="
M209.834 -201.251
L209.077 -227.874
L176.799 -207.542
L177.84 -180.588
L209.834 -201.251
z
" id="C5_0_48e692ae71"/>
     <path d="
M262.194 -189.109
L209.834 -201.251
L177.84 -180.588
L230.836 -167.981
L262.194 -189.109
z
" id="C5_1_e4a36ab5f2"/>
     <path d="
M209.077 -227.874
L261.867 -215.927
L230.235 -195.134
L176.799 -207.542
L209.077 -227.874
z
" id="C5_2_d94055252b"/>
     <path d="
M261.867 -215.927
L262.194 -189.109
L230.836 -167.981
L230.235 -195.134
L261.867 -215.927
z
" id="C5_3_8e52131e29"/>
    </defs>
    <g clip-path="url(#p7ff5b81e1d)">
     <use style="fill:#404040;stroke:#000000;stroke-linecap:butt;" x="0" xlink:href="#C5_0_48e692ae71" y="432.0"/>
    </g>
    <g clip-path="url(#p7ff5b81e1d)">
     <use style="fill:#707070;stroke:#000000;stroke-linecap:butt;" x="0" xlink:href="#C5_1_e4a36ab5f2" y="432.0"/>
    </g>
    <g clip-path="url(#p7ff5b81e1d)">
     <use style="fill:#505050;stroke:#000000;stroke-linecap:butt;" x="0" xlink:href="#C5_2_d94055252b" y="432.0"/>
    </g>
    <g clip-path="url(#p7ff5b81e1d)">
     <use style="fill:#808080;stroke:#000000;stroke-linecap:butt;" x="0" xlink:href="#C5_3_8e52131e29" y="432.0"/>
    </g>
   </g>
   <g id="line2d_27">
    <path clip-path="url(#p7ff5b81e1d)" d="
M417.72 102.658
L422.962 104.236
L427.591 106.792
L431.582 110.306
L434.909 114.752
L437.556 120.091
L439.506 126.278
L440.75 133.256
L441.28 140.963
L441.095 149.327
L440.197 158.272
L438.592 167.713
L436.291 177.565
L433.307 187.735
L429.659 198.129
L425.368 208.653
L420.457 219.21
L414.956 229.703
L408.893 240.039
L402.302 250.124
L395.216 259.869
L387.674 269.188
L379.712 278
L371.372 286.227
L362.695 293.799
L353.723 300.652
L344.499 306.725
L335.069 311.97
L325.476 316.341
L315.767 319.802
L305.988 322.325
L296.186 323.89
L286.406 324.484
L276.696 324.104
L267.103 322.754
L257.674 320.448
L248.454 317.207
L239.49 313.06
L230.828 308.046
L222.512 302.212
L214.586 295.609
L207.093 288.3
L200.074 280.352
L193.568 271.84
L187.613 262.843
L182.244 253.447
L177.494 243.742
L173.391 233.821
L169.963 223.779
L167.231 213.715
L165.215 203.724
L163.929 193.906
L163.382 184.355
L163.581 175.165
L164.526 166.423
L166.212 158.214
L168.63 150.615
L171.767 143.696
L175.603 137.52
L180.113 132.139
L185.271 127.599
L191.044 123.932
L197.394 121.164
L204.283 119.308
L211.667 118.367
L219.501 118.335
L227.736 119.193
L236.324 120.918
L245.213 123.472
L254.352 126.813
L263.688 130.891
L273.171 135.647
L282.749 141.02
L292.371 146.942
L301.987 153.341
L311.551 160.143
L321.016 167.272
L330.337 174.65
L339.472 182.199
L348.381 189.843
L357.024 197.505
L365.366 205.111
L373.373 212.589
L381.012 219.869
L388.253 226.887
L395.069 233.581
L401.434 239.893
L407.322 245.769
L412.712 251.163
L417.582 256.029
L421.913 260.331
L425.688 264.034
L428.891 267.113
L431.507 269.545
L433.522 271.314
L434.926 272.411
L435.709 272.832
L435.862 272.578
L435.38 271.658
L434.257 270.085" style="fill:none;stroke:#0000ff;"/>
   </g>
  </g>
 </g>
 <defs>
  <clipPath id="p7ff5b81e1d">
   <rect height="345.6" width="446.4" x="72.0" y="43.2"/>
  </clipPath>
 </defs>
</svg>
